<?xml version="1.0" encoding="UTF-8"?>
<svg version="1.1" viewBox="0 0 2048 1596" width="254" height="198" xmlns="http://www.w3.org/2000/svg">
<path transform="translate(0)" d="m0 0h2048v1596h-2048z" fill="#FCFCFC"/>
<path transform="translate(664,276)" d="m0 0h52l43 1 2 1-1 142v94l1 185 1 54 1 16h235l1-1v-491l41-1h73l31 1 1 1v492l-3 22-6 20-11 21-10 14-12 13-10 9-15 10-22 11-21 7-25 5-22 2h-226l-24-4-24-7-19-8-17-10-10-8-10-9-7-7-8-10-8-13-8-17-5-15-3-15-2-22v-482z" fill="#F46C26"/>
<path transform="translate(143,276)" d="m0 0h276l54 1 1 1v132l-3 1h-190l-134-1 1 83 4 3 228 70 24 9 16 8 13 8 13 10 13 13 11 15 12 23 7 21 4 17 4 29v28l-3 21-5 21-7 19-8 16-8 14-11 14-12 13-15 12-15 9-19 9-18 5-13 3-9 1h-331l-1-99 1-35 326-1v-83l-8-4-44-14-82-25-38-12-56-17-23-8-18-8-16-10-10-8-8-7v-2l-4-2-9-11-10-15-9-19-8-24-6-26v-54l9-31 8-20 8-16 8-13 10-13 9-10 11-10 13-9 16-9 18-7 17-4z" fill="#F46C26"/>
<path transform="translate(1234,276)" d="m0 0h501l36 1v133l-4 1h-33l-159 1-1 492h-142l-1-2-1-85-1-406h-193l-1-4-1-74z" fill="#F46C26"/>
<path transform="translate(1632)" d="m0 0h416v415h-133l-1-62-1-184-1-33-270-1-8-1-2-122z" fill="#F46C26"/>
<path transform="translate(930,1473)" d="m0 0h16l10 2 12 5 11 8 10 11 8 16 4 16v11l-3 13-7 13-12 14-11 8-13 6h-30l-9-4-10-4-10-9-9-11-4-8-3-11-1-8v-14l3-14 7-14 11-12 10-7 11-5z" fill="#F46C26"/>
<path transform="translate(688,1473)" d="m0 0h14l15 3 15 8 12 12 8 14 4 12 2 12-1 15-5 12-6 10-9 10-8 7-16 8h-30l-20-9-12-11-7-10-5-11-3-16v-10l3-15 7-14 9-10 8-7 10-6z" fill="#F46C26"/>
<path transform="translate(1208,1269)" d="m0 0h16l14 3 11 6 10 9 6 7 8 15 3 11 1 6v11l-4 16-7 12-9 10-9 7-14 7-6 1h-25l-13-4-10-6-10-9-9-14-4-12-1-6v-20l4-15 7-12 12-12 12-7 10-3z" fill="#F56D27"/>
<path transform="translate(781,1066)" d="m0 0h24l22 1 15 3 6 4 7 7 6 13 2 8v9l-4 10-7 8-7 7-8 4h-2l8 11 14 18 8 11 1 5h-18l-9-1-5-3-13-18-10-13-1-3h-3l-1 38h-18l-8-1-1-28v-88z" fill="#F56D27"/>
<path transform="translate(596,1271)" d="m0 0h27l24 1 13 4 9 7 7 12 3 13-1 13-4 8-9 9-12 7h-2l3 6 11 13 8 10 9 12v2h-25l-7-3-18-24-8-10-2-1v38h-26l-1-1v-115z" fill="#F56D27"/>
<path transform="translate(265,1066)" d="m0 0h25l21 1 14 3 10 6 6 7 5 10 2 9-1 13-5 10-8 8-10 6-4 1 7 10 13 16 11 14 2 4-6 1h-18l-8-2-9-12-10-14-8-10-3-2v40h-16l-10-1z" fill="#F56D27"/>
<path transform="translate(506,1475)" d="m0 0h17l6 2 8 9 14 20 13 20 12 18 3 3v2h2l-1-52v-21h25l1 22v95l-21 1-8-7-10-14-11-16-13-19-11-16-1-1-1 32v40l-24 1-1-7v-111z" fill="#F56D27"/>
<path transform="translate(512,1066)" d="m0 0h13l10 2 6 5 10 15 13 19 18 27 4 5 2 1-1-29v-44h24l1 34v84h-17l-7-3-5-5-13-18-12-17-15-22-6-8-1 61-1 11h-24l-1-5v-43l1-69z" fill="#F56D27"/>
<path transform="translate(157,1272)" d="m0 0h24l5 5 10 14 32 48 4 5 1-72h23l1 1 1 115h-19l-6-3-7-7-13-19-8-11-16-24-5-7-1 9-1 61-3 1h-15l-7-1z" fill="#F56D27"/>
<path transform="translate(368,1476)" d="m0 0h26l1 9 1 36 30 1 15 1v-24l1-23h24l1 1 1 116-2 1-24-1-1-19v-28l-39 1h-6l-1 46h-26l-1-11z" fill="#F46C26"/>
<path transform="translate(684,1066)" d="m0 0h23l5 6 9 21 16 43 15 40 2 9h-20l-9-1-2-6-4-15-3-7-2-1h-39l-4 8-6 20-1 1h-26l-1-4 12-31 14-36 14-39 3-6z" fill="#F46C26"/>
<path transform="translate(423,1065)" d="m0 0h12l5 2 3 4 11 27 30 80 1 7h-18l-9-1-8-22-3-6-2-1-36-1-3 1-8 21-3 8-5 1h-17l-4-2 5-16 6-18 16-40 10-28 6-14 1-1z" fill="#F46C26"/>
<path transform="translate(132,1067)" d="m0 0h23l2 2 1 75 3 9 6 5 6 2h14l10-5 3-6 2-13v-69h26l1 17v60l-3 14-7 11-10 9-14 7-4 1h-21l-10-3-12-7-7-7-6-10-3-12-1-8v-68z" fill="#F56D27"/>
<path transform="translate(1077,1473)" d="m0 0h17l13 3 9 5 3 3 2 10v13l-18-7-11-2-13 1-11 4-10 9-7 15-1 11 3 12 7 11 9 7 5 2 15 1 13-1-1-39 5-1h19v48l-2 10-24 7-4 1h-25l-5-3-12-5-9-7-9-10-7-12-4-15v-20l4-14 6-11 11-12 11-7 11-5z" fill="#F56D27"/>
<path transform="translate(24,1272)" d="m0 0h22l3 1 1 19 1 57 3 10 4 4 7 3h13l10-5 4-5 2-6 1-11v-66l1-1h23l2 5v50l-1 28-3 10-6 9-10 9-12 6-14 2-15-1-12-4-11-8-7-9-4-10-3-21v-65z" fill="#F56D27"/>
<path transform="translate(895,1066)" d="m0 0h67l6 2v22h-47v23h44l1 1v22h-44v23l45 1 1 4v20l-12 1h-57l-3-1-1-25z" fill="#F46C26"/>
<path transform="translate(1e3 1066)" d="m0 0h72l1 2-1 21-6 1-40 1 1 22 23-1h20l1 1v21l-3 1-40 1v23l45 1 1 4v19l-1 1h-72l-1-23z" fill="#F56D27"/>
<path transform="translate(146,1475)" d="m0 0 72 1v23l-1 1-45 1v21l43 1 1 3v18h-45l1 26h46l1 3v21l-3-1h-70l-1-14v-103z" fill="#F46C26"/>
<path transform="translate(489,1271)" d="m0 0h45l27 1v22l-1 1h-44v20l1 3 40 1v20h-42l1 26 10-1h33l1 1 1 9v14h-71l-1-1z" fill="#F56D27"/>
<path transform="translate(60,1063)" d="m0 0h8l16 4 9 6 2 3 1 7v12l-5-1-11-5-10-1-15 2-5 3-1 4 4 8 27 13 13 9 6 7 4 8 1 3v10l-5 10-9 10-9 7-11 4h-17l-16-4-13-7-1-4v-19l6 1 12 6 8 2h13l10-4 2-3 1-7-6-5-16-8-13-7-9-8-6-9-2-9v-7l4-11 6-8 9-6 12-5z" fill="#F56D27"/>
<path transform="translate(741,1269)" d="m0 0h16l16 4 5 5 1 17-2 4-15-6-4-1h-10l-8 2-4 2-1 2v8l2 4 31 15 8 6 7 8 5 14-1 8-6 12-8 9-10 6-7 2h-22l-15-3-8-4-4-12v-12l7 1 18 6 10 1 9-2 5-5 2-6-2-5-14-8-14-7-11-8-7-8-3-7v-13l4-13 6-7 9-5z" fill="#F56D27"/>
<path transform="translate(347,1271)" d="m0 0h14l10 1 4 5 18 49 10 26 2 3h2l12-37 9-25 8-21h25l-1 8-5 15-27 69-8 21-3 3h-21l-5-2-3-5-16-41-14-34-12-33z" fill="#F56D27"/>
<path transform="translate(295,1473)" d="m0 0h19l12 3 8 6 3 5 1 8v12l-16-7-8-2h-12l-9 3-9 6-7 8-5 10-1 4v11l4 12 8 11 10 6 5 1h21l12-4 4-2h3v24l-7 3-8 3-3 2h-31l-19-10-14-14-7-11-4-13-1-9v-9l2-13 5-13 8-11 7-7 13-8 11-4z" fill="#F56D27"/>
<path transform="translate(1308,1271)" d="m0 0 70 1v24h-44v27h13l29 1v22l-43 1v40h-26v-115z" fill="#F46C26"/>
<path transform="translate(873,1271)" d="m0 0h92v24l-1 1h-33l-1 91-1 1h-20l-5-1-1-91h-29l-4-1v-23z" fill="#F46C26"/>
<path transform="translate(1247,1474)" d="m0 0h5l-1 5-11 20-7 11-10 17-8 14-3 6-1 5-1 41h-24l-1-1-1-31-1-14-8-16-9-15-13-21-11-18v-2h21l8 4 6 8 10 17 9 17 3 1 14-26 9-14 5-6 4-1z" fill="#F56D27"/>
<path transform="translate(1084,1270)" d="m0 0h5l-1 6-12 22-11 18-8 13-6 13-2 12-1 33-9 1h-15l-1-1-1-36-1-9-8-16-12-19-12-20-7-14 1-2h17l8 2 7 9 17 29 4 5h2l17-32 7-10 10-3z" fill="#F46C26"/>
<path transform="translate(24,1475)" d="m0 0h74l19 1 1 1v22l-34 3-1 92-9-1h-16v-92h-12l-21-1-1-1z" fill="#F56D27"/>
<path transform="translate(1213,1291)" d="m0 0h8l9 3 8 6 6 7 4 8 2 12v8l-3 12-5 8-9 8-9 4-10 1-12-3-10-7-7-10-4-13v-12l4-11 4-6 5-6 11-7z" fill="#FDFDFD"/>
<path transform="translate(934,1497)" d="m0 0h13l8 3 10 9 6 9 3 11v12l-3 10-7 11-8 7-7 2-10 1-13-2-8-5-7-7-4-8-2-6-1-12 3-11 5-10 7-7 11-6z" fill="#FDFDFD"/>
<path transform="translate(789,1476)" d="m0 0h24l1 4 1 90h47l1 1v21l-65 1-9 1-1-17v-100z" fill="#F46C26"/>
<path transform="translate(692,1497)" d="m0 0h12l9 3 10 9 5 8 3 11v15l-4 11-6 8-7 6-9 3h-18l-12-6-7-8-4-8-2-8v-12l4-11 5-8 7-7 10-5z" fill="#FDFDFD"/>
<path transform="translate(817,1272)" d="m0 0h25l1 1v114l-1 1h-14l-11-1-1-11v-103z" fill="#F56D27"/>
<path transform="translate(295,1272)" d="m0 0h26l1 4v42l-1 70h-23l-2-1-1-9z" fill="#F56D27"/>
<path transform="translate(1141,278)" d="m0 0h4v52l-1 437-2 2-1-8-1-59v-24l-1-100v-39l-1-52v-48-3l-2-32v-26l-1-14v-10l2-23 3-24 1-21z" fill="#E75416"/>
<path transform="translate(1572,416)" d="m0 0h1v488l-46-1v-1l23-1 9-2 4-3-1-4 3-9 1-7 1-3v-43l1-21-1-2 1-3v-315l1-12v-31l2-26z" fill="#E65215"/>
<path transform="translate(758,283)" d="m0 0h1v428h-1l-1-15-2-88-1-99v-176l2-33v-8z" fill="#E65215"/>
<path transform="translate(1e3 335)" d="m0 0h1l1 28 1 10 1 36-1 322-1 8h-1l-1-48z" fill="#E65215"/>
<path transform="translate(293,1090)" d="m0 0h13l7 2 7 7 1 5v8l-3 5-8 3-6 1h-11l-2-3-1-6 1-21z" fill="#FDFDFD"/>
<path transform="translate(808,1090)" d="m0 0h10l9 2 7 6 2 6v9l-5 5-9 3h-14l-2-6v-21z" fill="#FDFDFD"/>
<path transform="translate(622,1295)" d="m0 0h11l12 3 6 7v13l-4 5-9 3h-14l-2-2-1-15z" fill="#FDFDFD"/>
<path transform="translate(619,375)" d="m0 0 2 2 1 18v109l-1 54-1 11-1 85h-1v-258z" fill="#E65215"/>
<path transform="translate(1914,135)" d="m0 0 4 2 1 2 1 18-1 17-1 48v96l-1 95h5v1h-6l-1-68z" fill="#E65215"/>
<path transform="translate(695,1096)" d="m0 0 3 2 5 14 6 21v2h-24l-3-1 1-7 9-25z" fill="#FDFDFD"/>
<path transform="translate(426,1096)" d="m0 0 4 4 6 18 4 14v3h-12l-15-1 1-8 6-16 5-13z" fill="#FDFDFD"/>
<path transform="translate(1769,278)" d="m0 0h1v133l-12-2 2-2h3l1-3v-74l2-23v-25l-1-3z" fill="#E65215"/>
<path transform="translate(472,285)" d="m0 0h1v125l-3-1-1-9-1-36v-33l3-40z" fill="#E65215"/>
<path transform="translate(1430,410)" d="m0 0 4 2 1 4v53l-1 34-1 76h-1l-1-69z" fill="#E65215"/>
<path transform="translate(1442,530)" d="m0 0 2 1v187l-2 1-1-177v-10z" fill="#E65215"/>
<path transform="translate(1634,45)" d="m0 0h1v15h2l1 13v46l-2 12 3 1-1 2-3-1-1-62z" fill="#E65215"/>
<path transform="translate(96,1272)" d="m0 0h23v5l-4-2-15-1v2l-4 1z" fill="#EB5C1B"/>
<path transform="translate(234,1273)" d="m0 0h22v5l-1-2-3-1-17-1-1 2z" fill="#E65215"/>
<path transform="translate(216,1486)" d="m0 0h1v13h-12v-1l8-1 2-2z" fill="#E65215"/>
<path transform="translate(25,1273)" d="m0 0h22l1 2-3 1-1-1-19-1z" fill="#E65215"/>
</svg>
